<svg width="284.20126953125px" height="136.40748901367186px" xmlns="http://www.w3.org/2000/svg" viewBox="107.89936523437501 6.796255493164068 284.20126953125 136.40748901367186" style="background:#fff" preserveAspectRatio="xMidYMid"><defs><filter id="editing-marble" x="-100%" y="-100%" width="300%" height="300%"><feFlood flood-color="#0eadf4" result="flood-1"></feFlood><feComposite operator="in" in="flood-1" in2="SourceAlpha" result="flood-2"></feComposite><feTurbulence baseFrequency="0.31" type="fractalNoise" numOctaves="1" seed="2" result="bs-1"></feTurbulence><feGaussianBlur stdDeviation="2.5" in="flood-2" result="bs-2"></feGaussianBlur><feDisplacementMap scale="64" in="bs-2" in2="bs-1" result="bs-3"></feDisplacementMap><feComposite operator="in" in="bs-3" in2="SourceAlpha" result="texture"></feComposite><feMerge><feMergeNode in="SourceGraphic"></feMergeNode><feMergeNode in="texture"></feMergeNode></feMerge></filter></defs><g filter="url(#editing-marble)"><g transform="translate(153.85156613588333, 101.25)"><path d="M24.36-38.78L24.36-38.78L24.64-40.95L24.64-40.95Q24.64-44.17 22.12-45.08L22.12-45.08L22.12-45.08Q20.16-45.71 19.11-45.71L19.11-45.71L19.04-45.71L19.04-45.71Q16.94-45.71 15.40-45.05L15.40-45.05L15.40-45.05Q13.86-44.38 13.16-43.40L13.16-43.40L13.16-43.40Q11.69-41.37 11.48-39.13L11.48-39.13L11.48-39.13Q11.48-36.47 13.86-34.55L13.86-34.55L13.86-34.55Q16.24-32.62 19.64-31.19L19.64-31.19L19.64-31.19Q23.03-29.75 26.43-28.07L26.43-28.07L26.43-28.07Q29.82-26.39 32.20-23.24L32.20-23.24L32.20-23.24Q34.58-20.09 34.58-15.68L34.58-15.68L34.58-15.68Q34.58-7.07 29.16-2.80L29.16-2.80L29.16-2.80Q23.73 1.47 16.84 1.47L16.84 1.47L16.84 1.47Q9.94 1.47 5.43-1.65L5.43-1.65L5.43-1.65Q0.91-4.76 0.91-10.01L0.91-10.01L0.91-10.08L0.91-10.08Q0.91-12.67 1.72-14.60L1.72-14.60L1.72-14.60Q2.52-16.52 3.64-17.43L3.64-17.43L3.64-17.43Q5.95-19.32 7.84-19.46L7.84-19.46L8.68-19.53L8.68-19.53Q10.64-19.53 12.25-18.59L12.25-18.59L12.25-18.59Q13.86-17.64 13.86-15.96L13.86-15.96L13.86-15.96Q13.86-15.12 12.95-14.56L12.95-14.56L12.95-14.56Q12.04-14.00 11.38-12.88L11.38-12.88L11.38-12.88Q10.71-11.76 10.64-10.99L10.64-10.99L10.50-10.22L10.50-10.22Q10.50-5.95 14.42-4.55L14.42-4.55L14.42-4.55Q15.82-4.06 16.66-4.06L16.66-4.06L16.66-4.06Q20.51-4.06 22.86-6.37L22.86-6.37L22.86-6.37Q25.20-8.68 25.20-12.25L25.20-12.25L25.20-12.25Q25.20-16.52 21.56-19.18L21.56-19.18L21.56-19.18Q18.83-21.14 15.65-22.47L15.65-22.47L15.65-22.47Q12.46-23.80 11.34-24.36L11.34-24.36L11.34-24.36Q10.22-24.92 8.96-25.69L8.96-25.69L8.96-25.69Q7.70-26.46 6.16-27.86L6.16-27.86L6.16-27.86Q2.80-30.80 2.80-35.81L2.80-35.81L2.80-35.81Q2.80-40.81 5.53-44.24L5.53-44.24L5.53-44.24Q10.43-50.47 20.23-50.47L20.23-50.47L20.23-50.47Q25.41-50.47 28.98-48.48L28.98-48.48L28.98-48.48Q32.55-46.48 32.55-42.98L32.55-42.98L32.55-42.98Q32.55-40.46 31.12-38.78L31.12-38.78L31.12-38.78Q29.68-37.10 27.44-37.10L27.44-37.10L27.44-37.10Q26.39-37.10 25.38-37.52L25.38-37.52L25.38-37.52Q24.36-37.94 24.36-38.78ZM53.62 0.42L53.62 0.42L53.62 0.42Q54.60-4.48 54.60-13.34L54.60-13.34L54.60-13.34Q54.60-22.19 54.53-23.80L54.53-23.80L54.53-23.80Q54.46-25.41 53.55-26.39L53.55-26.39L53.55-26.39Q52.64-27.37 51.98-27.51L51.98-27.51L51.98-27.51Q51.31-27.65 50.12-27.65L50.12-27.65L50.12-27.65Q48.93-27.65 47.81-26.57L47.81-26.57L47.81-26.57Q46.69-25.48 46.48-24.36L46.48-24.36L46.20-23.24L46.20-23.24Q45.99-21.14 45.99-13.93L45.99-13.93L45.99-13.93Q45.99-6.72 46.31-4.87L46.31-4.87L46.31-4.87Q46.62-3.01 46.62-2.38L46.62-2.38L46.62-2.38Q46.62-1.75 46.06-1.12L46.06-1.12L46.06-1.12Q43.68 1.40 39.34 1.40L39.34 1.40L39.34 1.40Q37.80 1.40 37.80 0.49L37.80 0.49L37.80 0.49Q39.20-7.91 39.20-20.93L39.20-20.93L39.20-20.93Q39.20-25.76 38.99-27.44L38.99-27.44L38.71-29.68L38.71-29.68Q38.64-30.45 38.43-31.36L38.43-31.36L38.43-31.36Q38.43-32.20 40.60-32.20L40.60-32.20L40.60-32.20Q43.82-32.20 44.87-29.82L44.87-29.82L44.87-29.82Q44.94-29.54 45.15-29.54L45.15-29.54L45.15-29.54Q45.36-29.54 46.13-30.10L46.13-30.10L46.13-30.10Q48.44-31.92 52.36-31.92L52.36-31.92L52.36-31.92Q54.60-31.92 56.77-31.08L56.77-31.08L56.77-31.08Q58.94-30.24 59.78-28.84L59.78-28.84L59.78-28.84Q59.85-28.70 59.99-28.70L59.99-28.70L59.99-28.70Q60.13-28.70 60.41-28.98L60.41-28.98L60.41-28.98Q63.35-31.92 68.04-31.92L68.04-31.92L68.04-31.92Q74.27-31.92 76.58-27.44L76.58-27.44L76.58-27.44Q77.42-25.69 77.42-23.03L77.42-23.03L77.42-23.03Q77.42-20.37 77-15.47L77-15.47L77-15.47Q76.58-10.57 76.58-7.98L76.58-7.98L76.58-7.98Q76.58-5.39 77.11-3.29L77.11-3.29L77.11-3.29Q77.63-1.19 78.16-0.28L78.16-0.28L78.16-0.28Q78.68 0.63 78.68 0.77L78.68 0.77L78.68 0.77Q78.68 1.68 76.72 1.68L76.72 1.68L76.72 1.68Q71.89 1.68 70-0.28L70-0.28L70-0.28Q68.11-2.24 68.11-5.43L68.11-5.43L68.11-5.43Q68.11-8.61 69.41-14.04L69.41-14.04L69.41-14.04Q70.70-19.46 70.70-22.19L70.70-22.19L70.70-22.19Q70.70-27.72 66.22-27.72L66.22-27.72L66.22-27.72Q64.33-27.72 63.21-26.60L63.21-26.60L63.21-26.60Q62.09-25.48 61.88-24.36L61.88-24.36L61.74-23.24L61.74-23.24Q61.46-20.02 61.46-15.47L61.46-15.47L61.46-15.47Q61.46-10.92 61.60-8.37L61.60-8.37L61.60-8.37Q61.74-5.81 61.88-4.38L61.88-4.38L61.88-4.38Q62.02-2.94 62.02-2.66L62.02-2.66L62.02-2.66Q62.02-0.70 59.57 0.35L59.57 0.35L59.57 0.35Q57.12 1.40 54.81 1.40L54.81 1.40L54.81 1.40Q53.62 1.40 53.62 0.42ZM104.37-21.00L104.37-21.00L104.23-12.04L104.23-12.04Q104.23-2.73 106.26-0.84L106.26-0.84L106.26-0.84Q106.54-0.56 106.54-0.21L106.54-0.21L106.54-0.21Q106.54 0.84 102.03 0.84L102.03 0.84L102.03 0.84Q97.51 0.84 97.23-1.82L97.23-1.82L97.23-1.82Q97.16-2.45 97.16-4.41L97.16-4.41L97.44-15.61L97.44-15.61Q97.44-16.10 96.88-16.10L96.88-16.10L96.88-16.10Q93.52-16.10 90.58-14.21L90.58-14.21L90.58-14.21Q87.64-12.32 87.64-9.38L87.64-9.38L87.64-9.38Q87.64-7.84 88.48-6.79L88.48-6.79L88.48-6.79Q89.32-5.74 90.55-5.74L90.55-5.74L90.55-5.74Q91.77-5.74 92.58-6.23L92.58-6.23L92.58-6.23Q93.38-6.72 93.52-6.79L93.52-6.79L93.52-6.79Q94.71-6.65 94.71-4.31L94.71-4.31L94.71-4.31Q94.71-1.96 92.54-0.53L92.54-0.53L92.54-0.53Q90.37 0.91 87.99 0.91L87.99 0.91L87.99 0.91Q85.61 0.91 83.90 0.07L83.90 0.07L83.90 0.07Q82.18-0.77 81.41-1.82L81.41-1.82L81.41-1.82Q80.64-2.87 80.15-4.20L80.15-4.20L80.15-4.20Q79.66-5.81 79.66-7.00L79.66-7.00L79.66-7.00Q79.66-11.90 82.74-14.84L82.74-14.84L82.74-14.84Q85.82-17.78 90.65-19.04L90.65-19.04L90.65-19.04Q97.02-20.30 97.30-21.35L97.30-21.35L97.30-21.35Q97.51-22.12 97.51-23.94L97.51-23.94L97.51-23.94Q97.51-27.65 93.73-27.65L93.73-27.65L93.73-27.65Q92.12-27.65 90.86-26.64L90.86-26.64L90.86-26.64Q89.60-25.62 89.60-24.08L89.60-24.08L90.02-22.40L90.02-22.40Q89.88-21.21 87.50-21.00L87.50-21.00L86.73-20.93L86.73-20.93Q84.63-20.93 83.41-21.98L83.41-21.98L83.41-21.98Q82.18-23.03 82.18-24.78L82.18-24.78L82.18-24.78Q82.18-25.90 82.92-27.27L82.92-27.27L82.92-27.27Q83.65-28.63 84.77-29.47L84.77-29.47L84.77-29.47Q85.89-30.31 88.24-30.98L88.24-30.98L88.24-30.98Q90.58-31.64 92.75-31.64L92.75-31.64L92.75-31.64Q94.92-31.64 96.11-31.50L96.11-31.50L96.11-31.50Q97.30-31.36 99.37-30.84L99.37-30.84L99.37-30.84Q101.43-30.31 102.80-28.84L102.80-28.84L102.80-28.84Q104.16-27.37 104.27-25.73L104.27-25.73L104.27-25.73Q104.37-24.08 104.37-21.00ZM129.92-9.59L129.92-9.59L129.92-9.59Q129.92-6.58 128.77-4.34L128.77-4.34L128.77-4.34Q127.61-2.10 126.14-1.05L126.14-1.05L126.14-1.05Q124.67 0 122.64 0.63L122.64 0.63L122.64 0.63Q119.98 1.47 117.81 1.47L117.81 1.47L117.81 1.47Q113.26 1.47 110.25-0.32L110.25-0.32L110.25-0.32Q107.24-2.10 107.24-6.02L107.24-6.02L107.24-6.02Q107.24-8.33 108.50-9.80L108.50-9.80L108.50-9.80Q110.46-11.97 113.19-11.97L113.19-11.97L113.19-11.97Q114.03-11.97 114.03-11.20L114.03-11.20L114.03-11.20Q114.03-11.13 113.72-10.12L113.72-10.12L113.72-10.12Q113.40-9.10 113.40-7.56L113.40-7.56L113.40-7.56Q113.40-6.02 114.63-4.83L114.63-4.83L114.63-4.83Q115.85-3.64 117.60-3.64L117.60-3.64L117.60-3.64Q119.35-3.64 120.40-4.24L120.40-4.24L120.40-4.24Q121.45-4.83 121.87-5.74L121.87-5.74L121.87-5.74Q122.50-7.00 122.50-8.12L122.50-8.12L122.50-8.12Q122.50-10.15 120.47-11.62L120.47-11.62L120.47-11.62Q118.44-13.09 115.99-13.93L115.99-13.93L115.99-13.93Q113.54-14.77 111.51-16.73L111.51-16.73L111.51-16.73Q109.48-18.69 109.48-21.63L109.48-21.63L109.48-21.63Q109.48-26.67 112.67-29.19L112.67-29.19L112.67-29.19Q115.85-31.71 121.31-31.71L121.31-31.71L121.31-31.71Q123.69-31.71 126.32-31.05L126.32-31.05L126.32-31.05Q128.94-30.38 128.94-28.81L128.94-28.81L128.94-28.81Q128.94-27.23 128.42-25.90L128.42-25.90L128.42-25.90Q127.89-24.57 127.12-24.57L127.12-24.57L127.12-24.57Q126.70-24.57 126.56-24.89L126.56-24.89L126.56-24.89Q126.42-25.20 126.07-25.62L126.07-25.62L126.07-25.62Q125.72-26.04 124.39-26.71L124.39-26.71L124.39-26.71Q123.06-27.37 122.12-27.37L122.12-27.37L122.12-27.37Q121.17-27.37 120.86-27.34L120.86-27.34L120.86-27.34Q120.54-27.30 119.77-27.13L119.77-27.13L119.77-27.13Q119.00-26.95 118.37-26.60L118.37-26.60L118.37-26.60Q116.76-25.69 116.76-23.94L116.76-23.94L116.76-23.94Q116.76-22.82 117.25-22.30L117.25-22.30L117.25-22.30Q117.74-21.77 118.02-21.49L118.02-21.49L118.02-21.49Q118.30-21.21 119.00-20.83L119.00-20.83L119.00-20.83Q119.70-20.44 119.98-20.30L119.98-20.30L119.98-20.30Q120.26-20.16 121.24-19.71L121.24-19.71L121.24-19.71Q122.22-19.25 122.50-19.11L122.50-19.11L122.50-19.11Q129.92-15.61 129.92-9.59ZM141.75-37.59L141.75-37.59L141.68-30.80L141.68-30.80Q141.68-30.38 141.96-30.38L141.96-30.38L141.96-30.38Q142.24-30.38 142.52-30.59L142.52-30.59L142.52-30.59Q144.27-31.78 148.05-31.78L148.05-31.78L148.05-31.78Q154.42-31.78 156.87-27.44L156.87-27.44L156.87-27.44Q157.78-25.83 157.78-23.17L157.78-23.17L157.78-23.17Q157.78-20.51 157.47-15.82L157.47-15.82L157.47-15.82Q157.15-11.13 157.15-9.17L157.15-9.17L157.15-9.17Q157.15-2.31 159.11-0.07L159.11-0.07L159.11-0.07Q159.46 0.28 159.46 0.63L159.46 0.63L159.46 0.63Q159.46 1.33 156.45 1.33L156.45 1.33L156.45 1.33Q148.33 1.33 148.33-6.23L148.33-6.23L148.33-6.23Q148.33-9.17 149.73-14.49L149.73-14.49L149.73-14.49Q151.13-19.81 151.13-22.33L151.13-22.33L151.13-22.33Q151.13-24.85 149.94-26.22L149.94-26.22L149.94-26.22Q148.75-27.58 146.65-27.58L146.65-27.58L146.65-27.58Q144.55-27.58 143.33-26.67L143.33-26.67L143.33-26.67Q142.10-25.76 141.82-24.78L141.82-24.78L141.61-23.87L141.61-23.87Q141.54-22.54 141.54-15.40L141.54-15.40L141.54-15.40Q141.54-8.26 141.89-6.13L141.89-6.13L141.89-6.13Q142.24-3.99 142.24-3.71L142.24-3.71L142.24-3.71Q142.24-1.68 139.51-0.11L139.51-0.11L139.51-0.11Q136.78 1.47 134.12 1.47L134.12 1.47L134.12 1.47Q133.14 1.47 133.14 0.35L133.14 0.35L133.28-0.98L133.28-0.98Q134.82-12.74 134.82-26.46L134.82-26.46L134.82-26.46Q134.82-31.78 134.40-37.24L134.40-37.24L134.33-38.78L134.33-38.78Q134.19-40.74 133.53-42.14L133.53-42.14L133.53-42.14Q132.86-43.54 132.30-43.96L132.30-43.96L131.67-44.31L131.67-44.31Q131.18-44.59 131.18-44.94L131.18-44.94L131.18-44.94Q131.18-45.92 134.47-47.36L134.47-47.36L134.47-47.36Q137.76-48.79 139.55-48.79L139.55-48.79L139.55-48.79Q141.33-48.79 141.47-48.02L141.47-48.02L141.47-48.02Q141.75-44.45 141.75-37.59ZM172.76-31.01L172.76-31.01L172.76-31.01Q172.76-9.31 173.74-2.59L173.74-2.59L173.74-2.59Q173.74-0.91 170.52 0.18L170.52 0.18L170.52 0.18Q167.30 1.26 165.20 1.26L165.20 1.26L165.20 1.26Q163.10 1.26 163.10 0.63L163.10 0.63L163.10 0.63Q163.10 0.21 163.31-0.42L163.31-0.42L163.31-0.42Q164.64-3.36 164.64-24.08L164.64-24.08L164.64-24.08Q164.64-43.68 162.96-45.85L162.96-45.85L162.68-46.27L162.68-46.27Q162.26-46.62 162.26-47.15L162.26-47.15L162.26-47.15Q162.26-47.67 163.03-48.02L163.03-48.02L163.03-48.02Q164.08-48.65 166.78-49.28L166.78-49.28L166.78-49.28Q169.47-49.91 171.64-49.91L171.64-49.91L171.64-49.91Q173.81-49.91 173.81-48.93L173.81-48.93L173.81-48.72L173.81-48.72Q172.97-41.44 172.76-31.01ZM177.66-27.30L177.66-27.30L177.87-30.10L177.87-30.10Q177.94-30.73 178.85-30.73L178.85-30.73L181.30-30.73L181.02-36.33L181.02-36.61L181.02-36.61Q181.02-38.22 183.47-39.69L183.47-39.69L183.47-39.69Q185.92-41.16 187.95-41.16L187.95-41.16L187.95-41.16Q188.58-41.16 188.58-40.60L188.58-40.60L188.58-40.53L188.58-40.53Q188.30-38.64 188.02-30.80L188.02-30.80L188.02-30.80Q191.10-30.80 191.94-30.94L191.94-30.94L191.94-30.94Q192.78-31.08 192.85-31.08L192.85-31.08L192.85-31.08Q193.34-31.08 193.34-30.24L193.34-30.24L193.34-30.24Q193.34-29.40 192.57-28.11L192.57-28.11L192.57-28.11Q191.80-26.81 190.89-26.74L190.89-26.74L187.95-26.74L187.95-26.74Q187.88-24.36 187.88-18.73L187.88-18.73L187.88-18.73Q187.88-13.09 187.99-9.45L187.99-9.45L187.99-9.45Q188.09-5.81 188.23-3.96L188.23-3.96L188.23-3.96Q188.37-2.10 188.55-0.98L188.55-0.98L188.55-0.98Q188.72 0.14 188.83 0.63L188.83 0.63L188.83 0.63Q188.93 1.12 188.93 1.26L188.93 1.26L188.93 1.26Q188.93 1.96 188.02 2.03L188.02 2.03L188.02 2.03Q185.29 2.03 182.60 1.26L182.60 1.26L182.60 1.26Q179.90 0.49 179.90-1.40L179.90-1.40L179.90-1.40Q181.37-13.16 181.37-26.67L181.37-26.67L181.37-26.67Q179.48-26.67 178.50-26.53L178.50-26.53L178.43-26.53L178.43-26.53Q177.80-26.53 177.66-27.30Z" fill="#0e1214"></path></g></g><style>text {
  font-size: 64px;
  font-family: Arial Black;
  dominant-baseline: central;
  text-anchor: middle;
}</style></svg>